<mxfile host="app.diagrams.net" agent="Mozilla/5.0 (Windows NT 10.0; Win64; x64) AppleWebKit/537.36 (KHTML, like Gecko) Chrome/128.0.0.0 Safari/537.36" version="24.7.14">
  <diagram name="Pagina-1" id="ab94C8zGq4wiaq_6U2x9">
    <mxGraphModel dx="1050" dy="565" grid="1" gridSize="10" guides="1" tooltips="1" connect="1" arrows="1" fold="1" page="1" pageScale="1" pageWidth="827" pageHeight="1169" math="0" shadow="0">
      <root>
        <mxCell id="0" />
        <mxCell id="1" parent="0" />
        <mxCell id="wCN9z8qDyLGh1947xGpQ-38" value="Cliënt" style="swimlane;whiteSpace=wrap;startSize=23;swimlaneLine=1;" vertex="1" parent="1">
          <mxGeometry x="40" y="40" width="200" height="570" as="geometry">
            <mxRectangle x="40" y="40" width="90" height="30" as="alternateBounds" />
          </mxGeometry>
        </mxCell>
        <mxCell id="wCN9z8qDyLGh1947xGpQ-39" style="edgeStyle=orthogonalEdgeStyle;rounded=0;orthogonalLoop=1;jettySize=auto;html=1;entryX=0.5;entryY=0;entryDx=0;entryDy=0;" edge="1" parent="wCN9z8qDyLGh1947xGpQ-38" source="wCN9z8qDyLGh1947xGpQ-40">
          <mxGeometry relative="1" as="geometry">
            <mxPoint x="95" y="100" as="targetPoint" />
          </mxGeometry>
        </mxCell>
        <mxCell id="wCN9z8qDyLGh1947xGpQ-40" value="" style="ellipse;shape=startState;fillColor=#000000;strokeColor=none;" vertex="1" parent="wCN9z8qDyLGh1947xGpQ-38">
          <mxGeometry x="80" y="40" width="30" height="30" as="geometry" />
        </mxCell>
        <mxCell id="wCN9z8qDyLGh1947xGpQ-36" value="Registreer" style="" vertex="1" parent="wCN9z8qDyLGh1947xGpQ-38">
          <mxGeometry x="40" y="110" width="120" height="40" as="geometry" />
        </mxCell>
        <mxCell id="wCN9z8qDyLGh1947xGpQ-37" value="Verstrek gegevens" style="" vertex="1" parent="wCN9z8qDyLGh1947xGpQ-38">
          <mxGeometry x="40" y="170" width="120" height="40" as="geometry" />
        </mxCell>
        <mxCell id="wCN9z8qDyLGh1947xGpQ-60" value="Controleer gegevens" style="" vertex="1" parent="wCN9z8qDyLGh1947xGpQ-38">
          <mxGeometry x="40" y="230" width="120" height="40" as="geometry" />
        </mxCell>
        <mxCell id="wCN9z8qDyLGh1947xGpQ-55" value="Baliemedewerker" style="swimlane;whiteSpace=wrap;startSize=23;swimlaneLine=1;" vertex="1" parent="1">
          <mxGeometry x="240" y="40" width="200" height="570" as="geometry">
            <mxRectangle x="40" y="40" width="90" height="30" as="alternateBounds" />
          </mxGeometry>
        </mxCell>
        <mxCell id="wCN9z8qDyLGh1947xGpQ-59" value="Invoeren gegevens" style="" vertex="1" parent="wCN9z8qDyLGh1947xGpQ-55">
          <mxGeometry x="40" y="160" width="120" height="40" as="geometry" />
        </mxCell>
        <mxCell id="wCN9z8qDyLGh1947xGpQ-58" value="Behandelaar" style="swimlane;whiteSpace=wrap;startSize=23;swimlaneLine=1;" vertex="1" parent="1">
          <mxGeometry x="440" y="40" width="200" height="570" as="geometry">
            <mxRectangle x="40" y="40" width="90" height="30" as="alternateBounds" />
          </mxGeometry>
        </mxCell>
        <mxCell id="wCN9z8qDyLGh1947xGpQ-62" value="Patiëntvolgsysteem (PVS)" style="swimlane;whiteSpace=wrap;startSize=23;swimlaneLine=1;" vertex="1" parent="1">
          <mxGeometry x="640" y="40" width="200" height="570" as="geometry">
            <mxRectangle x="40" y="40" width="90" height="30" as="alternateBounds" />
          </mxGeometry>
        </mxCell>
        <mxCell id="wCN9z8qDyLGh1947xGpQ-63" value="Gegevens opslaan" style="" vertex="1" parent="wCN9z8qDyLGh1947xGpQ-62">
          <mxGeometry x="40" y="240" width="120" height="40" as="geometry" />
        </mxCell>
      </root>
    </mxGraphModel>
  </diagram>
</mxfile>
